<svg width="40" height="40" viewBox="0 0 40 40" fill="none" xmlns="http://www.w3.org/2000/svg">
<circle cx="20" cy="20" r="20" fill="white" fill-opacity="0.1"/>
<path d="M23.4319 15.5L26.9319 12M28.9319 10L26.9319 12L28.9319 10ZM19.3219 19.61C19.8383 20.1195 20.2487 20.726 20.5297 21.3948C20.8106 22.0635 20.9565 22.7813 20.9589 23.5066C20.9614 24.232 20.8203 24.9507 20.5438 25.6213C20.2674 26.2919 19.861 26.9012 19.3481 27.4141C18.8351 27.9271 18.2258 28.3334 17.5552 28.6099C16.8846 28.8864 16.1659 29.0275 15.4405 29.025C14.7152 29.0226 13.9975 28.8767 13.3287 28.5958C12.66 28.3148 12.0534 27.9043 11.5439 27.388C10.542 26.3507 9.98768 24.9614 10.0002 23.5193C10.0127 22.0772 10.5912 20.6977 11.6109 19.678C12.6307 18.6583 14.0101 18.0798 15.4522 18.0673C16.8943 18.0548 18.2836 18.6091 19.3209 19.611L19.3219 19.61ZM19.3219 19.61L23.4319 15.5L19.3219 19.61ZM23.4319 15.5L26.4319 18.5L29.9319 15L26.9319 12L23.4319 15.5Z" stroke="white" stroke-width="2" stroke-linecap="round" stroke-linejoin="round"/>
</svg>
