<svg width="50" height="50" viewBox="0 0 50 50" fill="none" xmlns="http://www.w3.org/2000/svg">
<path d="M21.4376 8.04283L3.79177 37.5012C3.42795 38.1312 3.23545 38.8455 3.23341 39.5731C3.23138 40.3006 3.41988 41.016 3.78016 41.6481C4.14044 42.2802 4.65995 42.8069 5.287 43.1758C5.91404 43.5448 6.62677 43.7432 7.35427 43.7512H42.6459C43.3734 43.7432 44.0862 43.5448 44.7132 43.1758C45.3403 42.8069 45.8598 42.2802 46.2201 41.6481C46.5803 41.016 46.7688 40.3006 46.7668 39.5731C46.7648 38.8455 46.5723 38.1312 46.2084 37.5012L28.5626 8.04283C28.1912 7.43055 27.6683 6.92432 27.0443 6.573C26.4203 6.22168 25.7162 6.03711 25.0001 6.03711C24.284 6.03711 23.58 6.22168 22.9559 6.573C22.3319 6.92432 21.809 7.43055 21.4376 8.04283V8.04283Z" stroke="#F22F2F" stroke-width="2" stroke-linecap="round" stroke-linejoin="round"/>
<path d="M25 18.75V27.0833" stroke="#F22F2F" stroke-width="2" stroke-linecap="round" stroke-linejoin="round"/>
<path d="M25 35.417H25.0208" stroke="#F22F2F" stroke-width="2" stroke-linecap="round" stroke-linejoin="round"/>
</svg>
