<svg width="97" height="34" viewBox="0 0 97 34" fill="none" xmlns="http://www.w3.org/2000/svg">
<g clip-path="url(#clip0)">
<path d="M45.6157 11.8206H40.6926V10.7838H53.4065V11.8206H48.4849V22.5037L45.6157 23.3924V11.8206Z" fill="white"/>
<path d="M58.7186 21.9513C57.7323 21.5099 56.9062 20.7818 56.3509 19.8645C55.8014 18.9531 55.5266 17.8615 55.5266 16.5898C55.5266 15.3397 55.8014 14.2684 56.3509 13.3758C56.9116 12.4715 57.7372 11.7563 58.7186 11.3245C59.7486 10.8495 60.9707 10.6121 62.385 10.6121C63.7993 10.6121 65.016 10.8495 66.0349 11.3245C67.0158 11.757 67.8412 12.4721 68.4027 13.3758C68.9502 14.2644 69.2244 15.3358 69.2254 16.5898C69.2254 17.8635 68.9512 18.9551 68.4027 19.8645C67.8478 20.7787 67.0248 21.5053 66.0425 21.9484C65.0185 22.4352 63.7993 22.6785 62.385 22.6785C60.9707 22.6785 59.7486 22.4361 58.7186 21.9513ZM65.3053 20.3443C65.9719 19.4853 66.3057 18.2348 66.3067 16.5927C66.3067 14.9862 65.9729 13.7614 65.3053 12.9181C64.6376 12.0749 63.6642 11.6533 62.385 11.6533C61.1058 11.6533 60.1299 12.0749 59.4573 12.9181C58.7847 13.7614 58.4478 14.9862 58.4468 16.5927C58.4468 18.2338 58.7807 19.4843 59.4483 20.3443C60.1159 21.2044 61.0948 21.6339 62.385 21.6329C63.6632 21.6329 64.6366 21.2034 65.3053 20.3443Z" fill="white"/>
<path d="M94.3606 10.7823H97.2463V22.5037H94.3606V10.7823Z" fill="white"/>
<path d="M87.8415 10.7749H84.9092L84.9107 10.7823H84.9092L81.0551 19.5904L76.4563 10.7823H75.7386L75.6846 10.7749H74.4624L72.7463 22.5081H74.3588L75.5074 14.7279L79.5958 22.5037H81.3779L85.2936 13.4779L85.4062 14.257L86.5878 22.5037H89.5201L87.8415 10.7749Z" fill="white"/>
<path d="M24.4236 12.1613H10.0356V13.8986H24.4236V12.1613Z" fill="#e01286"/>
<path d="M27.9473 8.68518H6.51318V10.4225H27.9473V8.68518Z" fill="#e01286"/>
<path d="M8.27433 10.3632H6.51318V13.8985H8.27433V10.3632Z" fill="#e01286"/>
<path d="M27.9457 10.3632H26.1846V13.8985H27.9457V10.3632Z" fill="#e01286"/>
<path d="M14.6824 15.6359V26.2701L16.445 28.0089V15.6359H14.6824Z" fill="#e01286"/>
<path d="M19.9674 15.6359H18.2063V28.0089L19.9674 26.2701V15.6359Z" fill="#e01286"/>
<path d="M17.2301 1.64698L20.8696 1.7388C23.9824 1.81466 26.9464 3.06832 29.1481 5.24028C31.3499 7.41224 32.6208 10.3362 32.6976 13.4069L32.7892 16.997L32.6976 20.5872C32.6204 23.6579 31.3495 26.5818 29.1479 28.7539C26.9462 30.9261 23.9824 32.1802 20.8696 32.2567L17.2301 32.3471L13.5907 32.2567C10.4777 32.1805 7.51344 30.9266 5.31149 28.7544C3.10954 26.5823 1.83841 23.6582 1.76115 20.5872L1.66956 16.997L1.76115 13.4069C1.83958 10.337 3.11131 7.4143 5.31322 5.24356C7.51513 3.07282 10.4787 1.82015 13.5907 1.74473L17.2301 1.64698ZM17.2301 0L13.5442 0.0977522C10.0048 0.188105 6.63579 1.61571 4.13267 4.08579C1.62955 6.55587 0.183495 9.87982 0.0930872 13.3713L0 17.003L0.0930872 20.6346C0.183495 24.1261 1.62955 27.4501 4.13267 29.9201C6.63579 32.3902 10.0048 33.8178 13.5442 33.9082L17.2256 34L20.9071 33.9082C24.447 33.8186 27.8168 32.3913 30.3205 29.9211C32.8243 27.451 34.2708 24.1266 34.3612 20.6346L34.4543 17.003L34.3612 13.3713C34.2708 9.88007 32.825 6.55633 30.3222 4.08629C27.8194 1.61624 24.4507 0.188479 20.9116 0.0977522L17.2301 0.00592437V0Z" fill="#e01286"/>
</g>
<defs>
<clipPath id="clip0">
<rect width="97" height="34" fill="white"/>
</clipPath>
</defs>
</svg>
