<svg width="40" height="40" viewBox="0 0 40 40" fill="none" xmlns="http://www.w3.org/2000/svg">
<circle cx="20" cy="20" r="20" fill="white" fill-opacity="0.1"/>
<path fill-rule="evenodd" clip-rule="evenodd" d="M13 24.75C12.3096 24.75 11.75 25.3096 11.75 26C11.75 26.6904 12.3096 27.25 13 27.25C13.6904 27.25 14.25 26.6904 14.25 26C14.25 25.3096 13.6904 24.75 13 24.75ZM10.25 26C10.25 24.4812 11.4812 23.25 13 23.25C14.5188 23.25 15.75 24.4812 15.75 26C15.75 27.5188 14.5188 28.75 13 28.75C11.4812 28.75 10.25 27.5188 10.25 26Z" fill="white"/>
<path fill-rule="evenodd" clip-rule="evenodd" d="M27 12.75C26.3096 12.75 25.75 13.3096 25.75 14C25.75 14.6904 26.3096 15.25 27 15.25C27.6904 15.25 28.25 14.6904 28.25 14C28.25 13.3096 27.6904 12.75 27 12.75ZM24.25 14C24.25 12.4812 25.4812 11.25 27 11.25C28.5188 11.25 29.75 12.4812 29.75 14C29.75 15.5188 28.5188 16.75 27 16.75C25.4812 16.75 24.25 15.5188 24.25 14Z" fill="white"/>
<path fill-rule="evenodd" clip-rule="evenodd" d="M27 15.25C27.4142 15.25 27.75 15.5858 27.75 16V21C27.75 22.525 27.1442 23.9875 26.0659 25.0659C24.9875 26.1442 23.525 26.75 22 26.75H20.8107L22.5303 28.4697C22.8232 28.7626 22.8232 29.2374 22.5303 29.5303C22.2374 29.8232 21.7626 29.8232 21.4697 29.5303L18.4697 26.5303C18.1768 26.2374 18.1768 25.7626 18.4697 25.4697L21.4697 22.4697C21.7626 22.1768 22.2374 22.1768 22.5303 22.4697C22.8232 22.7626 22.8232 23.2374 22.5303 23.5303L20.8107 25.25H22C23.1272 25.25 24.2082 24.8022 25.0052 24.0052C25.8022 23.2082 26.25 22.1272 26.25 21V16C26.25 15.5858 26.5858 15.25 27 15.25Z" fill="white"/>
<path fill-rule="evenodd" clip-rule="evenodd" d="M17.4697 10.4697C17.7626 10.1768 18.2374 10.1768 18.5303 10.4697L21.5303 13.4697C21.8232 13.7626 21.8232 14.2374 21.5303 14.5303L18.5303 17.5303C18.2374 17.8232 17.7626 17.8232 17.4697 17.5303C17.1768 17.2374 17.1768 16.7626 17.4697 16.4697L19.1893 14.75H18C16.8728 14.75 15.7918 15.1978 14.9948 15.9948C14.1978 16.7918 13.75 17.8728 13.75 19V24C13.75 24.4142 13.4142 24.75 13 24.75C12.5858 24.75 12.25 24.4142 12.25 24V19C12.25 17.475 12.8558 16.0125 13.9341 14.9341C15.0125 13.8558 16.475 13.25 18 13.25H19.1893L17.4697 11.5303C17.1768 11.2374 17.1768 10.7626 17.4697 10.4697Z" fill="white"/>
</svg>
